<?xml version="1.0" encoding="utf-8"?>
<!-- Generator: Adobe Illustrator 16.0.0, SVG Export Plug-In . SVG Version: 6.00 Build 0)  -->
<!DOCTYPE svg PUBLIC "-//W3C//DTD SVG 1.1//EN" "http://www.w3.org/Graphics/SVG/1.1/DTD/svg11.dtd">
<svg version="1.1" id="Layer_1" xmlns="http://www.w3.org/2000/svg" xmlns:xlink="http://www.w3.org/1999/xlink" x="0px" y="0px"
	 width="240px" height="240px" viewBox="0 0 240 240" enable-background="new 0 0 240 240" xml:space="preserve">
<path fill-rule="evenodd" clip-rule="evenodd" fill="#515151" d="M190.448,65.983c0,37.884,0,75.77,0,113.653
	c-0.091,0.25-0.226,0.494-0.268,0.753c-1.204,7.33-6.648,13.049-13.856,14.55c-0.524,0.109-1.041,0.254-1.562,0.383
	c-36.508,0-73.017,0-109.525,0c-0.249-0.092-0.49-0.229-0.748-0.27c-7.1-1.114-12.746-6.33-14.406-13.318
	c-0.166-0.702-0.354-1.399-0.532-2.098c0-30.546,0-61.092,0-91.638c0.073-0.113,0.186-0.216,0.214-0.34
	c1.691-7.371,6.433-11.171,13.962-11.183c1.126-0.003,2.253-0.001,3.479-0.001c0-3.165-0.053-6.139,0.012-9.11
	c0.124-5.604,3.604-10.322,8.906-12.162c0.853-0.296,1.73-0.521,2.597-0.777c33.39,0,66.778,0,100.169,0
	c0.202,0.089,0.396,0.219,0.607,0.262c5.484,1.12,8.955,4.398,10.493,9.757C190.14,64.959,190.295,65.471,190.448,65.983z
	 M67.198,85.213c-1.411,0-2.642-0.005-3.872,0c-3.29,0.016-5,1.719-5,5.001c-0.002,29.031-0.005,58.061,0.001,87.092
	c0.001,5.479,3.768,9.24,9.251,9.242c34.947,0.004,69.894,0.002,104.84-0.004c0.686,0,1.384-0.016,2.051-0.15
	c4.434-0.896,7.206-4.451,7.206-9.227c0.004-36.187,0.001-72.371,0.001-108.556c0-3.848-1.566-5.414-5.422-5.414
	c-31.646-0.001-63.29-0.001-94.935,0c-3.841,0-5.383,1.563-5.383,5.445c-0.001,34.442,0,68.884-0.001,103.326
	c0,0.551,0.026,1.104-0.023,1.65c-0.169,1.905-1.5,3.45-3.341,3.921c-1.735,0.444-3.738-0.261-4.616-1.912
	c-0.49-0.921-0.725-2.084-0.726-3.139c-0.038-28.435-0.031-56.869-0.031-85.303C67.198,86.597,67.198,86.006,67.198,85.213z"/>
<path fill-rule="evenodd" clip-rule="evenodd" fill="#515151" d="M104.449,111.63c-4.905,0.001-9.811,0.006-14.716-0.001
	c-3.165-0.005-4.918-1.771-4.921-4.955c-0.005-9.903-0.007-19.806,0.001-29.707c0.001-3.108,1.742-4.882,4.85-4.888
	c9.948-0.018,19.898-0.018,29.847,0c3.089,0.005,4.853,1.801,4.855,4.89c0.009,9.948,0.011,19.896-0.001,29.845
	c-0.004,3.012-1.793,4.804-4.786,4.812C114.535,111.64,109.492,111.63,104.449,111.63z M115.544,102.842c0-7.405,0-14.661,0-21.957
	c-7.345,0-14.601,0-21.884,0c0,7.365,0,14.654,0,21.957C100.995,102.842,108.22,102.842,115.544,102.842z"/>
<path fill-rule="evenodd" clip-rule="evenodd" fill="#515151" d="M128.786,138.049c-13.573,0-27.147,0-40.721-0.001
	c-0.413,0-0.83,0.028-1.237-0.016c-1.145-0.123-2.004-1.002-1.995-2.083c0.01-1.164,0.665-1.885,1.763-2.152
	c0.48-0.117,1.002-0.079,1.504-0.079c27.148-0.004,54.295-0.004,81.443-0.003c2.124,0,3.209,0.717,3.244,2.132
	c0.036,1.492-1.021,2.201-3.279,2.202C155.935,138.049,142.36,138.049,128.786,138.049z"/>
<path fill-rule="evenodd" clip-rule="evenodd" fill="#515151" d="M128.81,124.84c-13.573,0-27.146,0-40.72-0.001
	c-0.413,0-0.83,0.034-1.237-0.016c-1.212-0.146-1.943-0.86-2.007-2.063c-0.063-1.159,0.633-1.89,1.726-2.168
	c0.479-0.122,1.002-0.084,1.506-0.084c27.146-0.004,54.293-0.004,81.44,0.004c0.589,0,1.207,0.005,1.76,0.175
	c1.041,0.318,1.592,1.115,1.48,2.197c-0.109,1.068-0.782,1.744-1.855,1.923c-0.446,0.074-0.915,0.031-1.372,0.031
	C155.958,124.84,142.384,124.84,128.81,124.84z"/>
<path fill-rule="evenodd" clip-rule="evenodd" fill="#515151" d="M104.593,151.259c-5.548,0-11.096,0-16.644-0.002
	c-0.366,0-0.737,0.03-1.1-0.014c-1.209-0.151-1.943-0.858-2.005-2.063c-0.059-1.158,0.633-1.891,1.728-2.169
	c0.478-0.122,1.002-0.084,1.505-0.084c11.003-0.004,22.007-0.004,33.011-0.003c2.191,0,3.317,0.777,3.266,2.246
	c-0.052,1.429-1.076,2.087-3.255,2.089C115.597,151.259,110.095,151.259,104.593,151.259z"/>
<path fill-rule="evenodd" clip-rule="evenodd" fill="#515151" d="M153.021,151.259c-5.549,0-11.097,0-16.645-0.002
	c-0.365,0-0.737,0.03-1.099-0.016c-1.212-0.151-1.941-0.86-1.999-2.066c-0.057-1.159,0.636-1.89,1.731-2.165
	c0.479-0.121,1.002-0.083,1.504-0.083c11.004-0.004,22.009-0.004,33.013-0.003c2.133,0,3.213,0.702,3.261,2.113
	c0.049,1.486-1.027,2.22-3.261,2.222C164.025,151.259,158.522,151.259,153.021,151.259z"/>
<path fill-rule="evenodd" clip-rule="evenodd" fill="#515151" d="M104.448,164.466c-5.686,0-11.371,0.008-17.056-0.004
	c-1.818-0.004-2.959-1.289-2.463-2.753c0.395-1.166,1.304-1.578,2.467-1.577c2.522,0.004,5.043,0,7.565,0
	c8.666,0,17.33,0,25.996,0.001c0.413,0,0.828-0.021,1.237,0.02c1.301,0.132,2.204,1.08,2.158,2.234
	c-0.047,1.184-0.959,2.059-2.3,2.069c-3.575,0.028-7.152,0.01-10.729,0.012C109.033,164.468,106.74,164.468,104.448,164.466z"/>
<path fill-rule="evenodd" clip-rule="evenodd" fill="#515151" d="M153.014,164.466c-5.731,0-11.462,0.01-17.192-0.004
	c-1.82-0.004-2.955-1.289-2.458-2.757c0.395-1.166,1.308-1.574,2.469-1.573c2.706,0.004,5.411,0,8.116,0
	c8.482,0,16.964,0,25.447,0.001c0.411,0,0.828-0.021,1.236,0.02c1.3,0.133,2.203,1.084,2.155,2.238
	c-0.05,1.184-0.964,2.055-2.305,2.065c-3.713,0.027-7.427,0.01-11.141,0.012C157.232,164.468,155.123,164.468,153.014,164.466z"/>
<path fill-rule="evenodd" clip-rule="evenodd" fill="#515151" d="M104.448,177.675c-5.686,0-11.371,0.008-17.057-0.004
	c-1.817-0.004-2.958-1.29-2.462-2.753c0.395-1.166,1.304-1.578,2.467-1.577c2.522,0.004,5.043,0,7.565,0
	c8.666,0,17.33,0,25.996,0.001c0.413,0,0.828-0.021,1.237,0.02c1.301,0.132,2.204,1.08,2.158,2.234
	c-0.047,1.184-0.959,2.059-2.3,2.069c-3.576,0.028-7.152,0.01-10.729,0.012C109.033,177.677,106.74,177.677,104.448,177.675z"/>
<path fill-rule="evenodd" clip-rule="evenodd" fill="#515151" d="M153.019,177.677c-5.548,0-11.096,0-16.643-0.002
	c-0.367,0-0.738,0.03-1.101-0.016c-1.21-0.151-1.94-0.861-1.997-2.067c-0.057-1.159,0.637-1.889,1.732-2.164
	c0.479-0.12,1.002-0.083,1.505-0.083c11.003-0.004,22.008-0.004,33.012-0.003c2.132,0,3.212,0.704,3.26,2.115
	c0.049,1.484-1.028,2.218-3.263,2.22C164.023,177.677,158.521,177.677,153.019,177.677z"/>
<path fill-rule="evenodd" clip-rule="evenodd" fill="#515151" d="M153.009,85.22c-5.731,0-11.462,0.008-17.193-0.005
	c-1.699-0.004-2.792-1.108-2.541-2.498c0.202-1.129,1.114-1.813,2.552-1.818c4.079-0.018,8.161-0.008,12.24-0.008
	c7.243,0,14.488-0.02,21.731,0.028c0.771,0.005,1.756,0.187,2.246,0.68c0.463,0.462,0.645,1.492,0.516,2.191
	c-0.197,1.069-1.159,1.433-2.221,1.43c-3.394-0.005-6.786-0.001-10.18-0.001C157.776,85.221,155.392,85.22,153.009,85.22z"/>
<path fill-rule="evenodd" clip-rule="evenodd" fill="#515151" d="M153.001,98.429c-5.731,0-11.462,0.008-17.193-0.005
	c-1.695-0.004-2.788-1.115-2.532-2.505c0.214-1.164,1.143-1.811,2.696-1.814c4.308-0.01,8.617-0.004,12.927-0.004
	c6.97,0,13.938-0.02,20.907,0.028c0.77,0.007,1.755,0.191,2.244,0.685c0.461,0.464,0.639,1.494,0.508,2.193
	c-0.201,1.07-1.165,1.427-2.227,1.425c-3.484-0.006-6.97-0.002-10.453-0.002C157.585,98.43,155.293,98.429,153.001,98.429z"/>
<path fill-rule="evenodd" clip-rule="evenodd" fill="#515151" d="M153.024,111.638c-5.547,0-11.095,0.001-16.643,0
	c-0.412-0.001-0.834,0.039-1.234-0.032c-1.13-0.201-1.828-0.901-1.879-2.045c-0.049-1.156,0.626-1.896,1.724-2.173
	c0.479-0.121,1.003-0.076,1.505-0.076c11.004-0.003,22.007-0.003,33.01-0.003c0.229,0,0.458-0.004,0.688,0.003
	c1.593,0.045,2.629,0.938,2.585,2.229c-0.042,1.266-1.018,2.09-2.563,2.092C164.485,111.644,158.755,111.638,153.024,111.638z"/>
</svg>
