<?xml version="1.0" encoding="utf-8"?>
<!-- Generator: Adobe Illustrator 16.0.0, SVG Export Plug-In . SVG Version: 6.00 Build 0)  -->
<!DOCTYPE svg PUBLIC "-//W3C//DTD SVG 1.1//EN" "http://www.w3.org/Graphics/SVG/1.1/DTD/svg11.dtd">
<svg version="1.1" id="Layer_1" xmlns="http://www.w3.org/2000/svg" xmlns:xlink="http://www.w3.org/1999/xlink" x="0px" y="0px"
	 width="240px" height="240px" viewBox="0 0 240 240" enable-background="new 0 0 240 240" xml:space="preserve">
<path fill="#353535" d="M148.05,48.47c-18.71,0.125-37.422,0.184-56.129-0.03c-4.72-0.054-6.459,1.531-6.36,6.218
	c0.206,9.759,0.051,19.527,0.052,29.291c0.005,39.102,0.009,78.204,0.034,117.306c0.001,2.237,0.186,4.474,0.356,8.307
	c2.541-2.222,4.094-3.438,5.484-4.819c8.139-8.087,16.343-16.112,24.298-24.377c3.029-3.147,5.31-3.552,8.332-0.093
	c2.93,3.35,6.287,6.327,9.462,9.464c6.399,6.325,12.804,12.646,19.937,19.689c0.499-2.095,0.833-2.846,0.834-3.596
	c0.03-50.601,0.002-101.201,0.094-151.802C154.45,49.289,152.106,48.443,148.05,48.47z M135,126.209
	c-10.031-6.341-19.487-8.072-29.407,0.422c2.908-11.546,1.856-21.211-9.587-27.842c12.002-0.855,20.424-5.212,23.944-17.506
	c3.807,11.758,11.505,16.995,23.515,17.496C133.649,106.073,130.509,114.628,135,126.209z"/>
</svg>
