<?xml version="1.0" encoding="utf-8"?>
<!-- Generator: Adobe Illustrator 16.0.0, SVG Export Plug-In . SVG Version: 6.00 Build 0)  -->
<!DOCTYPE svg PUBLIC "-//W3C//DTD SVG 1.1//EN" "http://www.w3.org/Graphics/SVG/1.1/DTD/svg11.dtd">
<svg version="1.1" id="Layer_1" xmlns="http://www.w3.org/2000/svg" xmlns:xlink="http://www.w3.org/1999/xlink" x="0px" y="0px"
	 width="240px" height="240px" viewBox="0 0 240 240" enable-background="new 0 0 240 240" xml:space="preserve">
<path fill="#353535" d="M193.856,118.104c0,9.566-3.299,18.404-9.896,26.513c-6.598,8.109-15.559,14.515-26.884,19.214
	c-11.325,4.701-23.694,7.051-37.109,7.051c-3.849,0-7.834-0.22-11.958-0.659c-10.885,9.62-23.53,16.272-37.934,19.956
	c-2.694,0.771-5.827,1.375-9.401,1.814c-0.935,0.11-1.773-0.138-2.515-0.742c-0.742-0.605-1.223-1.402-1.443-2.391v-0.083
	c-0.165-0.221-0.179-0.55-0.042-0.99c0.137-0.439,0.192-0.715,0.165-0.824c-0.028-0.11,0.096-0.371,0.371-0.784l0.495-0.741
	c0,0,0.192-0.234,0.578-0.701c0.384-0.467,0.604-0.716,0.659-0.742c0.385-0.44,1.237-1.388,2.557-2.845
	c1.319-1.457,2.268-2.502,2.845-3.134c0.577-0.633,1.429-1.718,2.556-3.257c1.127-1.54,2.021-2.942,2.68-4.207
	c0.66-1.264,1.402-2.886,2.226-4.865c0.825-1.979,1.54-4.067,2.144-6.267c-8.631-4.893-15.434-10.94-20.409-18.143
	c-4.976-7.201-7.463-14.926-7.463-23.173c0-7.146,1.951-13.977,5.854-20.492c3.904-6.514,9.153-12.136,15.75-16.864
	c6.598-4.729,14.459-8.48,23.585-11.257c9.126-2.776,18.692-4.164,28.698-4.164c13.415,0,25.784,2.351,37.109,7.051
	s20.286,11.105,26.884,19.214C190.558,99.701,193.856,108.539,193.856,118.104L193.856,118.104z"/>
</svg>
