<?xml version="1.0" encoding="utf-8"?>
<!-- Generator: Adobe Illustrator 16.0.0, SVG Export Plug-In . SVG Version: 6.00 Build 0)  -->
<!DOCTYPE svg PUBLIC "-//W3C//DTD SVG 1.1//EN" "http://www.w3.org/Graphics/SVG/1.1/DTD/svg11.dtd">
<svg version="1.1" id="Layer_1" xmlns="http://www.w3.org/2000/svg" xmlns:xlink="http://www.w3.org/1999/xlink" x="0px" y="0px"
	 width="240px" height="240px" viewBox="0 0 240 240" enable-background="new 0 0 240 240" xml:space="preserve">
<path fill-rule="evenodd" clip-rule="evenodd" fill="#353535" d="M151.655,161.3c-1.461-4.562-3.368-8.024-3.523-11.565
	c-0.287-6.423,0.2-12.922,0.911-19.329c0.323-2.938,1.384-7.692,3.08-8.17c3.209-0.901,7.137,0.603,10.722,1.319
	c0.861,0.172,1.559,1.17,2.384,1.828c4.354-13.273-3.028-33.917-15.725-44.314c-14.957-12.25-36.858-13.897-53.902-4.056
	c-16.009,9.243-24.886,28.627-21.702,47.974c1.455-0.855,2.746-1.693,4.106-2.402c7.368-3.832,12.191-1.021,12.481,7.137
	c0.236,6.653,0.672,13.301,0.975,19.953c0.164,3.613,0.906,7.752-3.869,8.986c-4.854,1.255-9.054-0.071-12.387-4.19
	c-1.707-2.108-3.86-4.08-6.212-5.399c-5.515-3.098-8.046-14.216-4.741-20.713c1.071-2.105,1.642-4.811,1.447-7.156
	c-1.22-14.787,1.702-28.043,8.289-41.852c7.367-15.443,19.941-18.679,33.688-21.156c14.977-2.7,29.755-0.834,43.69,5.738
	c6.585,3.105,10.263,8.131,13.41,15.048c3.602,7.913,7.76,15.389,8.797,24.15c0.282,2.396,0.314,4.823,0.453,7.237
	c0.408,7.174-1.762,14.16,2.017,21.575c3.289,6.453-0.707,13.424-6.823,17.511c-1.254,0.838-2.354,2.149-3.087,3.483
	c-5.915,10.759-14.958,17.768-26.188,22.257c-2.979,1.19-5.917,2.488-8.827,3.836c-4.248,1.97-8.743,2.351-11.388-1.763
	c-1.354-2.108-1.323-6.444-0.014-8.64c2.493-4.181,6.825-4.126,11.234-2.147C140.152,170.605,146.332,164.235,151.655,161.3z"/>
</svg>
