<?xml version="1.0" encoding="utf-8"?>
<!-- Generator: Adobe Illustrator 16.0.0, SVG Export Plug-In . SVG Version: 6.00 Build 0)  -->
<!DOCTYPE svg PUBLIC "-//W3C//DTD SVG 1.1//EN" "http://www.w3.org/Graphics/SVG/1.1/DTD/svg11.dtd">
<svg version="1.1" id="Layer_1" xmlns="http://www.w3.org/2000/svg" xmlns:xlink="http://www.w3.org/1999/xlink" x="0px" y="0px"
	 width="240px" height="240px" viewBox="0 0 240 240" enable-background="new 0 0 240 240" xml:space="preserve">
<g>
	<path fill="#353535" d="M147.705,65.083v-3.061h-15.356c-1.375-5.552-6.355-9.702-12.348-9.702s-10.947,4.15-12.349,9.702H92.296
		v3.061H73.255v120.056h93.491V65.083H147.705z M120.001,58.494c2.49,0,4.617,1.453,5.732,3.528h-11.492
		C115.357,59.947,117.458,58.494,120.001,58.494z M156.447,175.281H83.554V74.941h8.742v6.07h55.409v-6.07h8.742V175.281z"/>
	<polygon fill="#353535" points="103.762,129.34 117.51,115.59 131.259,129.34 138.912,121.686 125.163,107.937 138.912,94.189 
		131.259,86.537 117.51,100.285 103.762,86.537 96.083,94.189 109.832,107.937 96.083,121.686 	"/>
	<polygon fill="#353535" points="114.346,150.506 105.266,140.598 95.227,150.662 114.138,169.6 146.098,137.641 138.808,130.195 	
		"/>
</g>
</svg>
