<?xml version="1.0" encoding="utf-8"?>
<!-- Generator: Adobe Illustrator 16.0.0, SVG Export Plug-In . SVG Version: 6.00 Build 0)  -->
<!DOCTYPE svg PUBLIC "-//W3C//DTD SVG 1.1//EN" "http://www.w3.org/Graphics/SVG/1.1/DTD/svg11.dtd">
<svg version="1.1" id="Layer_1" xmlns="http://www.w3.org/2000/svg" xmlns:xlink="http://www.w3.org/1999/xlink" x="0px" y="0px"
	 width="240px" height="240px" viewBox="0 0 240 240" enable-background="new 0 0 240 240" xml:space="preserve">
<g>
	<g>
		<g>
			<g>
				<defs>
					<rect id="SVGID_1_" x="67.2" y="53" width="105.6" height="134.1"/>
				</defs>
				<clipPath id="SVGID_2_">
					<use xlink:href="#SVGID_1_"  overflow="visible"/>
				</clipPath>
				<path clip-path="url(#SVGID_2_)" fill="#B3B8BD" d="M120.3,187c19.8,0,35.9-2.6,35.9-5.7c0-3.2-16.101-5.7-35.9-5.7
					c-19.799,0-35.9,2.603-35.9,5.7C84.4,184.5,100.5,187,120.3,187"/>
			</g>
		</g>
	</g>
	<g>
		<g>
			<g>
				<defs>
					<rect id="SVGID_3_" x="67.2" y="53" width="105.6" height="134.1"/>
				</defs>
				<clipPath id="SVGID_4_">
					<use xlink:href="#SVGID_3_"  overflow="visible"/>
				</clipPath>
				<path clip-path="url(#SVGID_4_)" fill="#515151" d="M157.4,68.4c-20.603-20.6-54-20.5-74.603,0.2c-20.6,20.6-20.8,54.1-0.1,74.7
					L120,180.4l37.4-37.4C177.9,122.3,178,89,157.4,68.4"/>
			</g>
		</g>
	</g>
	<g>
		<g>
			<g>
				<defs>
					<rect id="SVGID_5_" x="78.395" y="65.167" width="83.209" height="105.667"/>
				</defs>
				<clipPath id="SVGID_6_">
					<use xlink:href="#SVGID_5_"  overflow="visible"/>
				</clipPath>
				<path clip-path="url(#SVGID_6_)" fill="#FFFFFF" d="M120,143.099c20.251,0,36.64-16.391,36.64-36.641
					c0-20.25-16.39-36.641-36.64-36.641s-36.641,16.391-36.641,36.641S99.749,143.099,120,143.099"/>
			</g>
		</g>
	</g>
</g>
</svg>
