<?xml version="1.0" encoding="utf-8"?>
<!-- Generator: Adobe Illustrator 16.0.0, SVG Export Plug-In . SVG Version: 6.00 Build 0)  -->
<!DOCTYPE svg PUBLIC "-//W3C//DTD SVG 1.1//EN" "http://www.w3.org/Graphics/SVG/1.1/DTD/svg11.dtd">
<svg version="1.1" id="Layer_1" xmlns="http://www.w3.org/2000/svg" xmlns:xlink="http://www.w3.org/1999/xlink" x="0px" y="0px"
	 width="240px" height="240px" viewBox="0 0 240 240" enable-background="new 0 0 240 240" xml:space="preserve">
<path fill-rule="evenodd" clip-rule="evenodd" fill="#353535" d="M62.309,124.597c0.192,0.099,0.384,0.197,0.575,0.296
	c0.432-0.28,0.862-0.559,1.291-0.84c5.12-3.357,10.673-5.625,16.773-6.296c1.394-0.153,2.201-0.717,2.84-1.762
	c1.535-2.511,2.92-5.121,4.572-7.55c3.092-4.548,5.838-9.344,12.368-9.999c3.51-0.353,6.876-0.734,10.176,0.557
	c2.799,1.096,4.685,5.771,3.237,8.395c-0.9,1.631-2.276,3.337-3.875,4.183c-4.832,2.556-9.829,4.822-14.854,6.987
	c-5.4,2.327-10.595,4.984-14.94,8.979c-3.094,2.845-5.314,6.093-5.261,10.752c0.061,5.414,4.308,9.608,9.395,9.547
	c2.786-0.034,5.66-0.085,8.327-0.772c3.933-1.016,7.852-2.313,11.526-4.028c4.195-1.957,8.025-4.685,12.18-6.738
	c3.726-1.842,7.642-3.326,11.548-4.769c2.271-0.837,4.711-1.21,7.038-1.918c3.4-1.035,6.785-2.131,10.145-3.297
	c3.287-1.142,6.63-2.242,8.944-5.104c2.973-3.682,5.269-7.773,7.143-12.103c0.769-1.773,1.096-3.85,2.228-5.327
	c1.685-2.2,3.854-4.043,5.904-5.944c5.354-4.96,11.628-8.557,17.994-12.011c3.044-1.651,5.11-4.131,4.746-7.688
	c-0.273-2.663-1.021-5.37-2.069-7.842c-2.956-6.985-7.833-12.611-13.27-17.794c-1.923-1.833-4.033-3.035-6.793-2.955
	c-2.211,0.064-4.061,0.881-5.994,1.917c-6.576,3.522-13.179,7.03-19.959,10.129c-4.224,1.929-8.758,3.209-13.21,4.592
	c-2.718,0.844-5.547,1.317-8.321,1.981c-4.45,1.065-8.897,2.139-13.341,3.23c-2.882,0.707-5.767,1.409-8.629,2.19
	c-3.376,0.922-6.708,2.016-10.099,2.875c-4.233,1.073-7.958,2.692-10.153,6.856c-3.315,6.286-6.88,12.439-10.186,18.73
	c-1.695,3.224-3.207,6.563-4.523,9.959c-1.02,2.632-1.625,5.428-2.379,8.161C62.997,121.64,62.67,123.123,62.309,124.597z"/>
<path fill-rule="evenodd" clip-rule="evenodd" fill="#353535" d="M86.505,183.694c-2.706-0.672-5.143-1.025-7.381-1.892
	c-3.055-1.182-2.923-1.332-2.063-4.478c0.327-1.197,0.999-1.226,1.864-0.958c1.969,0.607,3.949,1.201,5.867,1.95
	c2.44,0.953,4.768,0.357,6.943-0.585c1.636-0.709,3.191-1.809,3.493-3.905c0.616-4.287-0.256-5.905-3.767-7.924
	c-3.252-1.87-6.733-3.337-10.053-5.098c-3.206-1.702-5.287-5.85-4.673-9.421c0.192-1.117-0.047-1.808-0.848-2.411
	c-2.53-1.905-4.104-4.552-4.694-7.512c-1.039-5.201,0.083-10.055,3.647-14.153c1.231-1.415,2.587-2.722,4.205-4.412
	c-1.146,0.108-1.887,0.039-2.528,0.262c-6.539,2.273-12.443,5.589-17.331,10.589c-6.095,6.234-9.932,13.664-11.12,22.252
	c-0.829,5.99-0.524,12.012,1.358,17.906c1.902,5.951,4.866,11.246,9.187,15.702c7.574,7.811,16.783,12.168,27.739,12.768
	c7.301,0.4,14.291-0.821,20.827-4.008c6.495-3.166,11.881-7.793,15.949-13.807c3.178-4.695,5.375-9.863,6.278-15.47
	c1.098-6.822,0.864-13.641-1.611-20.151c-1.267-3.332-3.113-6.452-4.828-9.598c-0.243-0.442-1.388-0.839-1.848-0.639
	c-1.773,0.769-3.514,1.672-5.127,2.735c-5.307,3.49-10.864,6.398-16.922,8.425c-4.753,1.59-9.511,2.659-14.535,2.345
	c-0.516-0.032-1.035-0.004-1.684-0.004c0.043,2.912,2.019,4.052,3.976,5.099c3.366,1.798,6.926,3.266,10.164,5.26
	c6.645,4.094,6.042,15.252-1.404,18.877c-1.526,0.743-3.136,1.315-4.718,1.972c0,1.111,0.001,2.131,0,3.15
	c-0.004,3.842-0.005,3.843-3.915,3.387c-0.101-0.012-0.188-0.13-0.449-0.32C86.505,187.668,86.505,185.586,86.505,183.694z"/>
<path fill-rule="evenodd" clip-rule="evenodd" fill="#353535" d="M62.309,124.597c0.361-1.474,0.688-2.957,1.091-4.42
	c0.754-2.732,1.36-5.528,2.379-8.161c1.316-3.396,2.828-6.736,4.523-9.959c3.306-6.291,6.871-12.444,10.186-18.73
	c2.195-4.164,5.92-5.784,10.153-6.856c3.391-0.859,6.723-1.953,10.099-2.875c2.862-0.782,5.747-1.483,8.629-2.19
	c4.443-1.092,8.891-2.166,13.341-3.23c2.774-0.665,5.604-1.137,8.321-1.981c4.452-1.383,8.986-2.663,13.21-4.592
	c6.78-3.099,13.383-6.606,19.959-10.129c1.934-1.036,3.783-1.853,5.994-1.917c2.76-0.081,4.87,1.122,6.793,2.955
	c5.437,5.184,10.313,10.809,13.27,17.794c1.048,2.472,1.796,5.179,2.069,7.842c0.364,3.557-1.702,6.037-4.746,7.688
	c-6.366,3.454-12.641,7.05-17.994,12.011c-2.05,1.901-4.22,3.744-5.904,5.944c-1.132,1.477-1.459,3.553-2.228,5.327
	c-1.874,4.33-4.17,8.421-7.143,12.103c-2.314,2.862-5.657,3.963-8.944,5.104c-3.359,1.166-6.744,2.262-10.145,3.297
	c-2.327,0.708-4.767,1.081-7.038,1.918c-3.906,1.442-7.822,2.927-11.548,4.769c-4.155,2.054-7.985,4.781-12.18,6.738
	c-3.674,1.715-7.593,3.013-11.526,4.028c-2.667,0.688-5.542,0.738-8.327,0.772c-5.087,0.062-9.333-4.133-9.395-9.547
	c-0.053-4.659,2.167-7.907,5.261-10.752c4.345-3.995,9.54-6.652,14.94-8.979c5.025-2.165,10.022-4.431,14.854-6.987
	c1.599-0.846,2.976-2.552,3.875-4.183c1.448-2.624-0.438-7.299-3.237-8.395c-3.299-1.291-6.666-0.909-10.176-0.557
	c-6.53,0.655-9.276,5.451-12.368,9.999c-1.652,2.43-3.037,5.04-4.572,7.55c-0.639,1.045-1.446,1.609-2.84,1.762
	c-6.1,0.67-11.654,2.938-16.773,6.296c-0.429,0.281-0.859,0.56-1.291,0.84C62.692,124.794,62.5,124.695,62.309,124.597z"/>
<path fill-rule="evenodd" clip-rule="evenodd" fill="#353535" d="M86.505,183.694c0,1.892,0,3.974,0,5.934
	c0.261,0.19,0.349,0.309,0.449,0.32c3.91,0.456,3.911,0.455,3.915-3.387c0.001-1.02,0-2.039,0-3.15
	c1.582-0.656,3.192-1.229,4.718-1.972c7.446-3.625,8.049-14.783,1.404-18.877c-3.238-1.994-6.798-3.462-10.164-5.26
	c-1.958-1.047-3.933-2.187-3.976-5.099c0.648,0,1.168-0.028,1.684,0.004c5.023,0.314,9.782-0.755,14.535-2.345
	c6.058-2.026,11.615-4.935,16.922-8.425c1.614-1.063,3.354-1.967,5.127-2.735c0.46-0.2,1.604,0.196,1.848,0.639
	c1.715,3.146,3.562,6.266,4.828,9.598c2.476,6.511,2.709,13.329,1.611,20.151c-0.903,5.606-3.101,10.774-6.278,15.47
	c-4.068,6.014-9.454,10.641-15.949,13.807c-6.537,3.187-13.526,4.408-20.827,4.008c-10.957-0.6-20.166-4.957-27.739-12.768
	c-4.321-4.456-7.285-9.751-9.187-15.702c-1.882-5.895-2.187-11.916-1.358-17.906c1.188-8.588,5.025-16.018,11.12-22.252
	c4.888-5,10.792-8.315,17.331-10.589c0.641-0.223,1.383-0.153,2.528-0.262c-1.618,1.69-2.974,2.997-4.205,4.412
	c-3.565,4.099-4.686,8.952-3.647,14.153c0.59,2.96,2.164,5.606,4.694,7.512c0.801,0.604,1.04,1.294,0.848,2.411
	c-0.614,3.571,1.468,7.719,4.673,9.421c3.319,1.761,6.8,3.228,10.053,5.098c3.511,2.019,4.383,3.637,3.767,7.924
	c-0.302,2.097-1.856,3.196-3.493,3.905c-2.176,0.942-4.503,1.538-6.943,0.585c-1.918-0.749-3.898-1.343-5.867-1.95
	c-0.866-0.268-1.538-0.239-1.864,0.958c-0.86,3.146-0.993,3.296,2.063,4.478C81.362,182.669,83.8,183.022,86.505,183.694z
	 M52.206,159.777c0,0.925-0.192,1.575,0.043,1.979c0.368,0.634,1.019,1.511,1.558,1.518c0.548,0.006,1.228-0.842,1.616-1.463
	c0.246-0.394,0.11-1.056,0.072-1.593c-0.258-3.559,0.855-6.902,2.076-10.092c1.66-4.334,4.304-8.158,7.54-11.554
	c0.519-0.543,0.917-2.02,0.598-2.375c-0.689-0.774-1.797-0.717-2.612,0.279c-1.171,1.43-2.412,2.801-3.592,4.224
	C54.825,146.342,52.942,153.039,52.206,159.777z"/>
<path fill-rule="evenodd" clip-rule="evenodd" fill="#353535" d="M52.206,159.777c0.736-6.738,2.619-13.436,7.299-19.077
	c1.18-1.423,2.42-2.794,3.592-4.224c0.815-0.996,1.922-1.054,2.612-0.279c0.319,0.355-0.079,1.832-0.598,2.375
	c-3.236,3.396-5.88,7.22-7.54,11.554c-1.221,3.189-2.333,6.533-2.076,10.092c0.038,0.537,0.174,1.199-0.072,1.593
	c-0.389,0.621-1.068,1.469-1.616,1.463c-0.539-0.007-1.19-0.884-1.558-1.518C52.014,161.353,52.206,160.702,52.206,159.777z"/>
</svg>
